HIERARCHY
ROOT Hips
{
    OFFSET 0.0 0.0 0.0
    CHANNELS 6 Xposition Yposition Zposition Zrotation Xrotation Yrotation
    JOINT LeftUpLeg
    {
        OFFSET 12.128121216241466 0.0 0.0
        CHANNELS 3 Zrotation Xrotation Yrotation
        JOINT LeftLeg
        {
            OFFSET 0.0 0.0 -58.795045361660314
            CHANNELS 3 Zrotation Xrotation Yrotation
            JOINT LeftFoot
            {
                OFFSET 0.0 0.0 -47.270034124777666
                CHANNELS 3 Zrotation Xrotation Yrotation
                JOINT LeftToeBase
                {
                    OFFSET 0.0 -12.512090634514 0.0
                    CHANNELS 3 Zrotation Xrotation Yrotation
                    End Site
                    {
                        OFFSET 0 0 0
                    }
                }
            }
        }
    }
    JOINT RightUpLeg
    {
        OFFSET -12.128121216241466 0.0 0.0
        CHANNELS 3 Zrotation Xrotation Yrotation
        JOINT RightLeg
        {
            OFFSET 0.0 0.0 -58.795045361660314
            CHANNELS 3 Zrotation Xrotation Yrotation
            JOINT RightFoot
            {
                OFFSET 0.0 0.0 -47.270034124777666
                CHANNELS 3 Zrotation Xrotation Yrotation
                JOINT RightToeBase
                {
                    OFFSET 0.0 -12.512090634514 0.0
                    CHANNELS 3 Zrotation Xrotation Yrotation
                    End Site
                    {
                        OFFSET 0 0 0
                    }
                }
            }
        }
    }
    JOINT Spine
    {
        OFFSET 0.0 0.0 12.021436877161818
        CHANNELS 3 Zrotation Xrotation Yrotation
        JOINT Spine1
        {
            OFFSET 0.0 0.0 11.93053059793795
            CHANNELS 3 Zrotation Xrotation Yrotation
            JOINT Spine2
            {
                OFFSET 0.0 0.0 11.93053059793795
                CHANNELS 3 Zrotation Xrotation Yrotation
                JOINT Spine3
                {
                    OFFSET 0.0 0.0 11.930530597937949
                    CHANNELS 3 Zrotation Xrotation Yrotation
                    JOINT Spine4
                    {
                        OFFSET 0.0 0.0 11.930530597937956
                        CHANNELS 3 Zrotation Xrotation Yrotation
                        JOINT RightShoulder
                        {
                            OFFSET -23.777666322458472 0.0 0.0
                            CHANNELS 3 Zrotation Xrotation Yrotation
                            JOINT RightArm
                            {
                                OFFSET -36.154266778286335 0.0 0.0
                                CHANNELS 3 Zrotation Xrotation Yrotation
                                JOINT RightForeArm
                                {
                                    OFFSET -34.455432547766705 0.0 0.0
                                    CHANNELS 3 Zrotation Xrotation Yrotation
                                    JOINT RightHand
                                    {
                                        OFFSET -10.862128255248827 0.0 0.0
                                        CHANNELS 3 Zrotation Xrotation Yrotation
                                        End Site
                                        {
                                            OFFSET 0 0 0
                                        }
                                    }
                                }
                            }
                        }
                        JOINT LeftShoulder
                        {
                            OFFSET 23.777666322458472 0.0 0.0
                            CHANNELS 3 Zrotation Xrotation Yrotation
                            JOINT LeftArm
                            {
                                OFFSET 36.154266778286335 0.0 0.0
                                CHANNELS 3 Zrotation Xrotation Yrotation
                                JOINT LeftForeArm
                                {
                                    OFFSET 34.455432547766705 0.0 0.0
                                    CHANNELS 3 Zrotation Xrotation Yrotation
                                    JOINT LeftHand
                                    {
                                        OFFSET 10.862128255248827 0.0 0.0
                                        CHANNELS 3 Zrotation Xrotation Yrotation
                                        End Site
                                        {
                                            OFFSET 0 0 0
                                        }
                                    }
                                }
                            }
                        }
                        JOINT Neck
                        {
                            OFFSET 0.0 0.0 11.930530571755307
                            CHANNELS 3 Zrotation Xrotation Yrotation
                            JOINT Head
                            {
                                OFFSET 0.0 0.0 25.551184569694453
                                CHANNELS 3 Zrotation Xrotation Yrotation
                                End Site
                                {
                                    OFFSET 0 0 0
                                }
                            }
                        }
                    }
                }
            }
        }
    }
}
MOTION
Frames: 8
Frame Time: 0.03333333333333333
53.62236392498017 -8.621243834495544 394.8391828536988 -77.40849000193812 -79.5741536088553 -74.61057176116626 -2.9627559311670524 3.618962666456402 -13.17584897126 29.48477774919292 -16.99637330095857 15.69281914162458 -135.7320382741063 1.90833280887811e-14 61.71408029752852 0.0 0.0 -7.951386703658792e-16 2.9207225562054147 4.115411856415219 9.802722880270903 -25.864145040575263 -19.54218457832731 -26.29747520095727 91.93641934065556 1.90833280887811e-14 -81.24710075803274 -1.1034765745125397e-32 -3.975693351829396e-16 -3.1805546814635168e-15 0.25521690254689966 -3.5731070738009287 -0.21523874203625232 0.0 0.0 0.0 0.0 0.0 0.0 0.0 0.0 0.0 0.0 0.0 0.0 123.5218098355366 3.2638756445956756 -178.35843499652646 126.38170543716998 -1.990112191133877e-14 -2.9295852848503346e-15 2.3577972513387532e-15 52.94743044620487 -2.9507744683876133e-15 -9.93923337957349e-17 0.0 0.0 -176.06946634750219 -68.90198609206448 -130.20671625118666 -90.65033949797632 5.870003918212702e-15 5.937012795899917e-15 -180.0 20.99690780694435 -180.0 0.0 0.0 0.0 -17.411347257921875 8.940497487304899e-15 1.3689944263129953e-15 -1.5902773407317584e-15 0.0 0.0
53.53689465522766 -9.653999447822573 394.1999044418335 -74.44134075279676 -78.7262587539797 -72.23488674174025 -4.065791723095075 3.760967059744717 -12.345192744698666 30.007634299116194 -18.86391826770928 14.960967549985346 -130.00390669232257 6.3611093629270335e-15 63.13701966547736 0.0 0.0 7.951386703658792e-16 3.7763307163640665 3.7813430248941367 10.662373702164032 -26.780705629801254 -19.89385527375564 -26.902620207829518 92.42520774703199 1.2722218725854067e-14 -82.2469022403467 0.0 0.0 0.0 0.24574101167167212 -4.234603082965637 0.03513259799490778 0.0 0.0 0.0 0.0 0.0 0.0 0.0 0.0 0.0 0.0 0.0 0.0 122.02403286521151 1.8182396643936631 177.2486177286065 125.42337708433529 -8.569553231435198e-15 2.7368196995480938e-15 4.141066064581639e-15 71.88604443067226 -3.0023732769712215e-15 0.0 0.0 -1.5902773407317584e-15 -156.8655458960791 -62.99932712512008 -107.24965025943315 -66.67885248309761 -9.64923249814613e-15 8.880489265067098e-15 -180.0 13.248591118481325 -180.0 0.0 0.0 6.3611093629270335e-15 -15.019754395134724 -1.8876577556115013e-14 -8.904604022055344e-15 0.0 0.0 0.0
53.35114481449127 -10.540112695097925 393.50159282684325 -71.74026939335837 -78.01257158883647 -69.94190466576458 -5.039916757786217 3.852213609833504 -11.80747773685522 30.446710225105853 -20.678390660010315 14.59360622563294 -125.1469274698714 0.0 66.19499962753176 0.0 0.0 0.0 4.462957509664119 3.2859908660845005 11.23221626483799 -27.218820307457484 -20.257183867574046 -27.29802246699776 93.03628030750997 -9.54166404439055e-15 -83.19445118547864 0.0 0.0 0.0 0.22475269301142295 -4.861375065376598 0.2446021500733607 7.951386703658792e-16 0.0 0.0 7.951386703658792e-16 0.0 0.0 7.951386703658792e-16 0.0 0.0 7.951386703658792e-16 0.0 0.0 120.55208957252655 1.0342097538859072 173.20053519600486 124.64145468561452 -1.154290186828944e-14 8.311436584287342e-15 6.362200643441959e-15 84.70036023035205 -5.79935086944085e-15 7.951386703658792e-16 0.0 0.0 -151.90489443687318 -55.982828542629626 -98.56223563216139 -48.09540348339344 -1.9394413387698797e-14 1.2242752533625078e-14 -180.0 5.861668660384555 180.0 0.0 -3.1805546814635164e-15 0.0 -12.259406729973849 1.008005616882275e-14 1.0825329362291186e-15 0.0 0.0 0.0
53.06503536701202 -11.242590075731279 392.79079170227055 -69.41565725087467 -77.50448665452875 -67.8869764915151 -5.747864270092936 3.8657423499394166 -11.629415524030986 30.561075901208497 -22.176823232555954 14.59791473593139 -127.33397968374756 -9.54166404439055e-15 56.82098006831779 0.0 0.0 0.0 4.944620158723708 2.7577923192804903 11.576795742173271 -27.28639539802015 -20.678478149293856 -27.52946070513775 93.73480360194738 -9.54166404439055e-15 -84.12462161217488 0.0 0.0 0.0 0.1926701708232207 -5.454820930955651 0.28221302639536383 7.951386703658792e-16 0.0 0.0 7.951386703658792e-16 0.0 0.0 7.951386703658792e-16 0.0 0.0 7.951386703658792e-16 0.0 0.0 119.30149096239562 1.1324933299067539 170.0930693927914 124.02555096824479 -3.530231356254764e-16 1.4219491422034155e-14 179.99999999999915 89.59307275211081 -179.99999999999915 0.0 0.0 0.0 -153.96843756474976 -50.574831486851586 -96.5692353354415 -33.7857585835449 -1.4021683250956154e-14 2.3897615875742824e-15 -180.0 -5.9872897554408135 180.0 0.0 0.0 3.1805546814635168e-15 -9.128563848158409 1.9463248013304627e-14 4.744437793664997e-15 -1.5902773407317584e-15 0.0 0.0
52.81676173210144 -11.197886520624161 392.23309307098384 -68.00326857021476 -77.3898153145338 -66.80421503102403 -5.803952107151837 3.8239019992250465 -11.538676121623288 31.35317809070029 -22.789582356778425 15.279037067203301 -133.38879509882747 6.3611093629270335e-15 46.27917348003572 0.0 0.0 -1.5902773407317584e-15 4.8018901384849295 2.4887233398884976 12.306472233977496 -27.78706741844222 -20.499857099850168 -28.54554178553411 100.26350841851857 -6.3611093629270335e-15 -76.67750209304542 0.0 0.0 0.0 0.16602362941390336 -5.878299311058728 0.2893361826008899 0.0 0.0 0.0 0.0 0.0 0.0 0.0 0.0 0.0 0.0 0.0 0.0 117.99883963649884 1.36721623027835 167.59946324959174 123.33315158928437 -6.0379874716823395e-15 1.1198105045063604e-14 1.5358052343685766e-13 89.3764360805217 -1.5639180478852535e-13 0.0 0.0 0.0 -155.20826089535632 -49.72445810741301 -95.29680300452581 -28.612562547214125 -7.67390065862017e-15 -8.521637973110702e-15 180.0 -17.846570589941884 180.0 0.0 0.0 3.1805546814635168e-15 -8.727603594391688 -1.2003117838611492e-14 -7.295565440127055e-15 0.0 1.9878466759146977e-16 0.0
52.576563692092904 -10.806453323364257 391.71358451843264 -66.07470426344139 -77.75676654684005 -65.18919611144509 -5.181113400392317 3.1956494632197634 -11.958784551319011 31.38477868266125 -22.311626823552803 16.540013457413323 -144.4757097814254 0.0 35.96393698442722 6.3611093629270335e-15 0.0 0.0 4.828241630707988 2.7447730652609623 15.087296888510041 -28.781043663853126 -19.144872477592784 -32.73770210274134 106.67480209147399 -1.5902773407317584e-14 -77.39667562590442 0.0 0.0 0.0 0.13830332093368666 -6.26344948031571 0.2569883207768161 -7.951386703658792e-16 0.0 0.0 -7.951386703658792e-16 0.0 0.0 -7.951386703658792e-16 0.0 0.0 -7.951386703658792e-16 0.0 0.0 116.42498703750903 1.1692848670149734 166.03549564864406 122.99978982622237 -1.1660784817907357e-14 8.14522308264489e-15 6.259450016569422e-15 72.51232643521057 -8.534887230457632e-15 0.0 0.0 -3.1805546814635168e-15 -164.61265577074042 -50.648497211049744 -100.470047570623 -26.493572945211476 -1.2203023465732705e-14 1.0197275142863623e-14 -179.99999999999997 -14.719237188146808 -180.0 0.0 0.0 -3.1805546814635168e-15 -8.105551313104552 -1.2663906107812432e-14 -4.085797213240227e-15 1.5902773407317584e-15 0.0 0.0
52.34361369609833 -10.341273021698 391.2194864273072 -63.88493297033102 -78.37442156045016 -63.313487107743086 -4.025452041806499 2.224374998664382 -12.677921387614285 30.725752061275887 -21.219758125126354 18.10243516080945 -160.47031985090612 -1.3517357396219947e-14 28.172104384146106 0.0 0.0 -7.951386703658792e-16 4.773257426793332 3.1954453887304344 18.192736539288546 -29.737841176699128 -17.563467963194743 -36.66413000569142 111.94215256092987 6.3611093629270335e-15 -78.14093398161735 0.0 0.0 0.0 0.09668380988958078 -6.595956039335143 0.14794392281996435 -1.5902773407317582e-15 -1.1034765745125397e-32 7.951386703658791e-16 -1.5902773407317582e-15 -1.1034765745125397e-32 7.951386703658791e-16 -1.5902773407317582e-15 -1.1034765745125397e-32 7.951386703658791e-16 -1.5902773407317582e-15 -1.1034765745125397e-32 7.951386703658791e-16 114.71818719976218 0.9379923005159722 165.00500747952265 122.79856342756862 -5.052549980319144e-16 1.4214896377482097e-14 5.498301772685701e-15 43.37302895677989 1.2362824979294192e-15 0.0 0.0 0.0 -171.70138415357113 -52.135660581259586 -104.57903865065461 -25.923524879256764 4.772226606483543e-15 7.625829651297392e-15 -180.0 -7.502917570509813 -180.0 0.0 0.0 -3.1805546814635168e-15 -7.493120866142804 -1.5760138972925323e-14 -4.219390482275924e-15 0.0 0.0 0.0
52.13872790336609 -9.965689051151276 390.79176349639897 -61.36223485170208 -79.31044322243876 -61.153605355300925 -2.4817293991115794 1.0495081179579444 -13.493779727895866 29.46938023357345 -19.709899829055896 19.816281476799453 179.86136099573963 -1.6353144919829508e-14 23.508868774876966 0.0 0.0 -3.975693351829396e-16 5.017505563636389 4.216178353467156 21.53740348571636 -31.246382349626142 -16.028648060806383 -40.72612261943186 116.7394611385398 3.1805546814635168e-15 -79.15732444602195 0.0 0.0 0.0 0.0440606334047509 -6.783614252309543 0.04698360836775812 0.0 0.0 0.0 0.0 0.0 0.0 0.0 0.0 0.0 0.0 0.0 0.0 112.83902531145458 1.202600879230297 164.3974224967489 122.81597038866722 8.126507228742868e-15 1.1673835783356715e-14 1.647321989541177e-16 11.645882005711664 -1.6153249938591256e-15 0.0 0.0 0.0 -176.07623216380222 -54.17045896711696 -107.35637223717546 -26.596828433823475 -1.632068668122657e-15 -6.9221378396727826e-15 -180.0 2.5323170153464205 180.0 0.0 0.0 0.0 -6.89670699634215 4.460997819680398e-15 -1.3243515405155684e-15 -1.5902773407317584e-15 0.0 0.0
